<svg width="1893" height="915" viewBox="0 0 1893 915" fill="none" xmlns="http://www.w3.org/2000/svg">
<path opacity="0.18" d="M1892.39 0V827.244H1892.91V946.027H0.4375V118.783H-0.0898438V0H1892.39ZM1.4375 945.027H118.211V828.244H1.4375V945.027ZM119.221 945.027H235.994V828.244H119.221V945.027ZM237.488 945.027H354.271V828.244H237.488V945.027ZM355.766 945.027H472.549V828.244H355.766V945.027ZM474.043 945.027H590.826V828.244H474.043V945.027ZM592.324 945.027H709.107V828.244H592.324V945.027ZM710.602 945.027H827.385V828.244H710.602V945.027ZM828.879 945.027H945.662V828.244H828.879V945.027ZM947.156 945.027H1063.94V828.244H947.156V945.027ZM1065.44 945.027H1182.22V828.244H1065.44V945.027ZM1183.72 945.027H1300.5V828.244H1183.72V945.027ZM1302 945.027H1418.78V828.244H1302V945.027ZM1420.27 945.027H1537.06V828.244H1420.27V945.027ZM1538.55 945.027H1655.33V828.244H1538.55V945.027ZM1656.82 945.027H1773.6V828.244H1656.82V945.027ZM1775.12 945.027H1891.91V828.244H1775.12V945.027ZM1.4375 826.865H118.211V710.082H1.4375V826.865ZM119.221 826.865H235.994V710.082H119.221V826.865ZM237.488 826.865H354.271V710.082H237.488V826.865ZM355.766 826.865H472.549V710.082H355.766V826.865ZM474.043 826.865H590.826V710.082H474.043V826.865ZM592.324 826.865H709.107V710.082H592.324V826.865ZM710.602 826.865H827.385V710.082H710.602V826.865ZM828.879 826.865H945.662V710.082H828.879V826.865ZM947.156 826.865H1063.94V710.082H947.156V826.865ZM1065.44 826.865H1182.22V710.082H1065.44V826.865ZM1183.72 826.865H1300.5V710.082H1183.72V826.865ZM1302 826.865H1418.78V710.082H1302V826.865ZM1420.27 826.865H1537.06V710.082H1420.27V826.865ZM1538.55 826.865H1655.33V710.082H1538.55V826.865ZM1656.82 826.865H1773.6V710.082H1656.82V826.865ZM1774.61 826.865H1891.39V710.082H1774.61V826.865ZM1.4375 708.682H118.211V591.898H1.4375V708.682ZM119.221 708.682H235.994V591.898H119.221V708.682ZM237.488 708.682H354.271V591.898H237.488V708.682ZM355.766 708.682H472.549V591.898H355.766V708.682ZM474.043 708.682H590.826V591.898H474.043V708.682ZM592.324 708.682H709.107V591.898H592.324V708.682ZM710.602 708.682H827.385V591.898H710.602V708.682ZM828.879 708.682H945.662V591.898H828.879V708.682ZM947.156 708.682H1063.94V591.898H947.156V708.682ZM1065.44 708.682H1182.22V591.898H1065.44V708.682ZM1183.72 708.682H1300.5V591.898H1183.72V708.682ZM1302 708.682H1418.78V591.898H1302V708.682ZM1420.27 708.682H1537.06V591.898H1420.27V708.682ZM1538.55 708.682H1655.33V591.898H1538.55V708.682ZM1656.82 708.682H1773.6V591.898H1656.82V708.682ZM1774.61 708.682H1891.39V591.898H1774.61V708.682ZM1.4375 590.498H118.211V473.715H1.4375V590.498ZM119.221 590.498H235.994V473.715H119.221V590.498ZM237.488 590.498H354.271V473.715H237.488V590.498ZM355.766 590.498H472.549V473.715H355.766V590.498ZM474.043 590.498H590.826V473.715H474.043V590.498ZM592.324 590.498H709.107V473.715H592.324V590.498ZM710.602 590.498H827.385V473.715H710.602V590.498ZM828.879 590.498H945.662V473.715H828.879V590.498ZM947.156 590.498H1063.94V473.715H947.156V590.498ZM1065.44 590.498H1182.22V473.715H1065.44V590.498ZM1183.72 590.498H1300.5V473.715H1183.72V590.498ZM1302 590.498H1418.78V473.715H1302V590.498ZM1420.27 590.498H1537.06V473.715H1420.27V590.498ZM1538.55 590.498H1655.33V473.715H1538.55V590.498ZM1656.82 590.498H1773.6V473.715H1656.82V590.498ZM1774.61 590.498H1891.39V473.715H1774.61V590.498ZM1.4375 472.312H118.211V355.529H1.4375V472.312ZM119.221 472.312H235.994V355.529H119.221V472.312ZM237.488 472.312H354.271V355.529H237.488V472.312ZM355.766 472.312H472.549V355.529H355.766V472.312ZM474.043 472.312H590.826V355.529H474.043V472.312ZM592.324 472.312H709.107V355.529H592.324V472.312ZM710.602 472.312H827.385V355.529H710.602V472.312ZM828.879 472.312H945.662V355.529H828.879V472.312ZM947.156 472.312H1063.94V355.529H947.156V472.312ZM1065.44 472.312H1182.22V355.529H1065.44V472.312ZM1183.72 472.312H1300.5V355.529H1183.72V472.312ZM1302 472.312H1418.78V355.529H1302V472.312ZM1420.27 472.312H1537.06V355.529H1420.27V472.312ZM1538.55 472.312H1655.33V355.529H1538.55V472.312ZM1656.82 472.312H1773.6V355.529H1656.82V472.312ZM1774.61 472.312H1891.39V355.529H1774.61V472.312ZM1.4375 354.129H118.211V237.346H1.4375V354.129ZM119.221 354.129H235.994V237.346H119.221V354.129ZM237.488 354.129H354.271V237.346H237.488V354.129ZM355.766 354.129H472.549V237.346H355.766V354.129ZM474.043 354.129H590.826V237.346H474.043V354.129ZM592.324 354.129H709.107V237.346H592.324V354.129ZM710.602 354.129H827.385V237.346H710.602V354.129ZM828.879 354.129H945.662V237.346H828.879V354.129ZM947.156 354.129H1063.94V237.346H947.156V354.129ZM1065.44 354.129H1182.22V237.346H1065.44V354.129ZM1183.72 354.129H1300.5V237.346H1183.72V354.129ZM1302 354.129H1418.78V237.346H1302V354.129ZM1420.27 354.129H1537.06V237.346H1420.27V354.129ZM1538.55 354.129H1655.33V237.346H1538.55V354.129ZM1656.82 354.129H1773.6V237.346H1656.82V354.129ZM1774.61 354.129H1891.39V237.346H1774.61V354.129ZM1.4375 235.945H118.211V119.162H1.4375V235.945ZM119.221 235.945H235.994V119.162H119.221V235.945ZM237.488 235.945H354.271V119.162H237.488V235.945ZM355.766 235.945H472.549V119.162H355.766V235.945ZM474.043 235.945H590.826V119.162H474.043V235.945ZM592.324 235.945H709.107V119.162H592.324V235.945ZM710.602 235.945H827.385V119.162H710.602V235.945ZM828.879 235.945H945.662V119.162H828.879V235.945ZM947.156 235.945H1063.94V119.162H947.156V235.945ZM1065.44 235.945H1182.22V119.162H1065.44V235.945ZM1183.72 235.945H1300.5V119.162H1183.72V235.945ZM1302 235.945H1418.78V119.162H1302V235.945ZM1420.27 235.945H1537.06V119.162H1420.27V235.945ZM1538.55 235.945H1655.33V119.162H1538.55V235.945ZM1656.82 235.945H1773.6V119.162H1656.82V235.945ZM1774.61 235.945H1891.39V119.162H1774.61V235.945ZM0.910156 117.783H117.693V1H0.910156V117.783ZM119.211 117.783H235.994V1H119.211V117.783ZM237.488 117.783H354.271V1H237.488V117.783ZM355.766 117.783H472.549V1H355.766V117.783ZM474.043 117.783H590.826V1H474.043V117.783ZM592.324 117.783H709.107V1H592.324V117.783ZM710.602 117.783H827.385V1H710.602V117.783ZM828.879 117.783H945.662V1H828.879V117.783ZM947.156 117.783H1063.94V1H947.156V117.783ZM1065.44 117.783H1182.22V1H1065.44V117.783ZM1183.72 117.783H1300.5V1H1183.72V117.783ZM1302 117.783H1418.78V1H1302V117.783ZM1420.27 117.783H1537.06V1H1420.27V117.783ZM1538.55 117.783H1655.33V1H1538.55V117.783ZM1656.82 117.783H1773.6V1H1656.82V117.783ZM1774.61 117.783H1891.39V1H1774.61V117.783Z" fill="url(#paint0_linear_7249_190084)"/>
<defs>
<linearGradient id="paint0_linear_7249_190084" x1="1234.09" y1="277.236" x2="1394.16" y2="645.689" gradientUnits="userSpaceOnUse">
<stop stop-color="#101010"/>
<stop offset="1" stop-color="#B1B1B1"/>
</linearGradient>
</defs>
</svg>
