<svg width="375" height="559" viewBox="0 0 375 559" fill="none" xmlns="http://www.w3.org/2000/svg">
<path opacity="0.18" d="M406 674.142L24.7695 674.142L24.7695 674.382L-29.9717 674.382L-29.9717 -197.758L351.259 -197.758L351.259 -198L406 -198L406 674.142ZM-28.9717 -196.758L-28.9717 -144.017L23.7695 -144.017L23.7695 -196.758L-28.9717 -196.758ZM-28.9717 -142.482L-28.9717 -89.7412L23.7695 -89.7412L23.7695 -142.482L-28.9717 -142.482ZM-28.9717 -87.9746L-28.9717 -35.2334L23.7695 -35.2334L23.7695 -87.9746L-28.9717 -87.9746ZM-28.9717 -33.4668L-28.9717 19.2744L23.7695 19.2744L23.7695 -33.4668L-28.9717 -33.4668ZM-28.9717 21.041L-28.9717 73.7822L23.7695 73.7822L23.7695 21.041L-28.9717 21.041ZM-28.9717 75.5527L-28.9717 128.294L23.7695 128.294L23.7695 75.5527L-28.9717 75.5527ZM-28.9717 130.059L-28.9717 182.8L23.7695 182.8L23.7695 130.059L-28.9717 130.059ZM-28.9717 184.566L-28.9717 237.308L23.7695 237.308L23.7695 184.566L-28.9717 184.566ZM-28.9717 239.074L-28.9717 291.815L23.7695 291.815L23.7695 239.074L-28.9717 239.074ZM-28.9717 293.584L-28.9717 346.325L23.7695 346.325L23.7695 293.584L-28.9717 293.584ZM-28.9717 348.092L-28.9717 400.833L23.7695 400.833L23.7695 348.092L-28.9717 348.092ZM-28.9717 402.6L-28.9717 455.341L23.7695 455.341L23.7695 402.6L-28.9717 402.6ZM-28.9717 457.107L-28.9717 509.849L23.7695 509.849L23.7695 457.107L-28.9717 457.107ZM-28.9717 511.613L-28.9717 564.354L23.7695 564.354L23.7695 511.613L-28.9717 511.613ZM-28.9717 566.119L-28.9717 618.86L23.7695 618.86L23.7695 566.119L-28.9717 566.119ZM-28.9717 620.641L-28.9717 673.382L23.7695 673.382L23.7695 620.641L-28.9717 620.641ZM25.4814 -196.758L25.4814 -144.017L78.2227 -144.017L78.2227 -196.758L25.4814 -196.758ZM25.4814 -142.482L25.4814 -89.7412L78.2227 -89.7412L78.2227 -142.482L25.4814 -142.482ZM25.4814 -87.9746L25.4814 -35.2334L78.2226 -35.2334L78.2227 -87.9746L25.4814 -87.9746ZM25.4814 -33.4668L25.4814 19.2744L78.2226 19.2744L78.2226 -33.4668L25.4814 -33.4668ZM25.4814 21.041L25.4814 73.7822L78.2226 73.7822L78.2226 21.041L25.4814 21.041ZM25.4814 75.5527L25.4814 128.294L78.2226 128.294L78.2226 75.5527L25.4814 75.5527ZM25.4814 130.059L25.4814 182.8L78.2226 182.8L78.2226 130.059L25.4814 130.059ZM25.4814 184.566L25.4814 237.308L78.2226 237.308L78.2226 184.566L25.4814 184.566ZM25.4814 239.074L25.4814 291.815L78.2226 291.815L78.2226 239.074L25.4814 239.074ZM25.4814 293.584L25.4814 346.325L78.2226 346.325L78.2226 293.584L25.4814 293.584ZM25.4814 348.092L25.4814 400.833L78.2226 400.833L78.2226 348.092L25.4814 348.092ZM25.4814 402.6L25.4814 455.341L78.2226 455.341L78.2226 402.6L25.4814 402.6ZM25.4814 457.107L25.4814 509.849L78.2226 509.849L78.2226 457.107L25.4814 457.107ZM25.4814 511.613L25.4814 564.354L78.2226 564.354L78.2226 511.613L25.4814 511.613ZM25.4814 566.119L25.4814 618.86L78.2226 618.86L78.2226 566.119L25.4814 566.119ZM25.4814 620.4L25.4814 673.142L78.2226 673.142L78.2226 620.4L25.4814 620.4ZM79.9463 -196.758L79.9463 -144.017L132.687 -144.017L132.687 -196.758L79.9463 -196.758ZM79.9463 -142.482L79.9463 -89.7412L132.687 -89.7412L132.687 -142.482L79.9463 -142.482ZM79.9463 -87.9746L79.9463 -35.2334L132.687 -35.2334L132.687 -87.9746L79.9463 -87.9746ZM79.9463 -33.4668L79.9463 19.2744L132.687 19.2744L132.687 -33.4668L79.9463 -33.4668ZM79.9463 21.041L79.9463 73.7822L132.687 73.7822L132.687 21.041L79.9463 21.041ZM79.9463 75.5527L79.9463 128.294L132.687 128.294L132.687 75.5527L79.9463 75.5527ZM79.9463 130.059L79.9463 182.8L132.687 182.8L132.687 130.059L79.9463 130.059ZM79.9463 184.566L79.9463 237.308L132.687 237.308L132.687 184.566L79.9463 184.566ZM79.9463 239.074L79.9463 291.815L132.687 291.815L132.687 239.074L79.9463 239.074ZM79.9463 293.584L79.9463 346.325L132.687 346.325L132.687 293.584L79.9463 293.584ZM79.9463 348.092L79.9463 400.833L132.687 400.833L132.687 348.092L79.9463 348.092ZM79.9463 402.6L79.9463 455.341L132.687 455.341L132.687 402.6L79.9463 402.6ZM79.9463 457.107L79.9463 509.849L132.687 509.849L132.687 457.107L79.9463 457.107ZM79.9463 511.613L79.9463 564.354L132.687 564.354L132.687 511.613L79.9463 511.613ZM79.9463 566.119L79.9463 618.86L132.687 618.86L132.687 566.119L79.9463 566.119ZM79.9463 620.4L79.9463 673.142L132.687 673.142L132.687 620.4L79.9463 620.4ZM134.411 -196.758L134.411 -144.017L187.152 -144.017L187.152 -196.758L134.411 -196.758ZM134.411 -142.482L134.411 -89.7412L187.152 -89.7412L187.152 -142.482L134.411 -142.482ZM134.411 -87.9746L134.411 -35.2334L187.152 -35.2334L187.152 -87.9746L134.411 -87.9746ZM134.411 -33.4668L134.411 19.2744L187.152 19.2744L187.152 -33.4668L134.411 -33.4668ZM134.411 21.041L134.411 73.7822L187.152 73.7822L187.152 21.041L134.411 21.041ZM134.411 75.5527L134.411 128.294L187.152 128.294L187.152 75.5527L134.411 75.5527ZM134.411 130.059L134.411 182.8L187.152 182.8L187.152 130.059L134.411 130.059ZM134.411 184.566L134.411 237.308L187.152 237.308L187.152 184.566L134.411 184.566ZM134.411 239.074L134.411 291.815L187.152 291.815L187.152 239.074L134.411 239.074ZM134.411 293.584L134.411 346.325L187.152 346.325L187.152 293.584L134.411 293.584ZM134.411 348.092L134.411 400.833L187.152 400.833L187.152 348.092L134.411 348.092ZM134.411 402.6L134.411 455.341L187.152 455.341L187.152 402.6L134.411 402.6ZM134.411 457.107L134.411 509.849L187.152 509.849L187.152 457.107L134.411 457.107ZM134.411 511.613L134.411 564.354L187.152 564.354L187.152 511.613L134.411 511.613ZM134.411 566.119L134.411 618.86L187.152 618.86L187.152 566.119L134.411 566.119ZM134.411 620.4L134.411 673.142L187.152 673.142L187.152 620.4L134.411 620.4ZM188.876 -196.758L188.876 -144.017L241.617 -144.017L241.617 -196.758L188.876 -196.758ZM188.876 -142.482L188.876 -89.7412L241.617 -89.7412L241.617 -142.482L188.876 -142.482ZM188.876 -87.9746L188.876 -35.2334L241.617 -35.2334L241.617 -87.9746L188.876 -87.9746ZM188.876 -33.4668L188.876 19.2744L241.617 19.2744L241.617 -33.4668L188.876 -33.4668ZM188.876 21.041L188.876 73.7822L241.617 73.7822L241.617 21.041L188.876 21.041ZM188.876 75.5527L188.876 128.294L241.617 128.294L241.617 75.5527L188.876 75.5527ZM188.876 130.059L188.876 182.8L241.617 182.8L241.617 130.059L188.876 130.059ZM188.876 184.566L188.876 237.308L241.617 237.308L241.617 184.566L188.876 184.566ZM188.876 239.074L188.876 291.815L241.617 291.815L241.617 239.074L188.876 239.074ZM188.876 293.584L188.876 346.325L241.617 346.325L241.617 293.584L188.876 293.584ZM188.876 348.092L188.876 400.833L241.617 400.833L241.617 348.092L188.876 348.092ZM188.876 402.6L188.876 455.341L241.617 455.341L241.617 402.6L188.876 402.6ZM188.876 457.107L188.876 509.849L241.617 509.849L241.617 457.107L188.876 457.107ZM188.876 511.613L188.876 564.354L241.617 564.354L241.617 511.613L188.876 511.613ZM188.876 566.119L188.876 618.86L241.617 618.86L241.617 566.119L188.876 566.119ZM188.876 620.4L188.876 673.142L241.617 673.142L241.617 620.4L188.876 620.4ZM243.341 -196.758L243.341 -144.017L296.082 -144.017L296.082 -196.758L243.341 -196.758ZM243.341 -142.482L243.341 -89.7412L296.082 -89.7412L296.082 -142.482L243.341 -142.482ZM243.341 -87.9746L243.341 -35.2334L296.082 -35.2334L296.082 -87.9746L243.341 -87.9746ZM243.341 -33.4668L243.341 19.2744L296.082 19.2744L296.082 -33.4668L243.341 -33.4668ZM243.341 21.041L243.341 73.7822L296.082 73.7822L296.082 21.041L243.341 21.041ZM243.341 75.5527L243.341 128.294L296.082 128.294L296.082 75.5527L243.341 75.5527ZM243.341 130.059L243.341 182.8L296.082 182.8L296.082 130.059L243.341 130.059ZM243.341 184.566L243.341 237.308L296.082 237.308L296.082 184.566L243.341 184.566ZM243.341 239.074L243.341 291.815L296.082 291.815L296.082 239.074L243.341 239.074ZM243.341 293.584L243.341 346.325L296.082 346.325L296.082 293.584L243.341 293.584ZM243.341 348.092L243.341 400.833L296.082 400.833L296.082 348.092L243.341 348.092ZM243.341 402.6L243.341 455.341L296.082 455.341L296.082 402.6L243.341 402.6ZM243.341 457.107L243.341 509.849L296.082 509.849L296.082 457.107L243.341 457.107ZM243.341 511.613L243.341 564.354L296.082 564.354L296.082 511.613L243.341 511.613ZM243.341 566.119L243.341 618.86L296.082 618.86L296.082 566.119L243.341 566.119ZM243.341 620.4L243.341 673.142L296.082 673.142L296.082 620.4L243.341 620.4ZM297.806 -196.758L297.806 -144.017L350.547 -144.017L350.547 -196.758L297.806 -196.758ZM297.806 -142.482L297.806 -89.7412L350.547 -89.7412L350.547 -142.482L297.806 -142.482ZM297.806 -87.9746L297.806 -35.2334L350.547 -35.2334L350.547 -87.9746L297.806 -87.9746ZM297.806 -33.4668L297.806 19.2744L350.547 19.2744L350.547 -33.4668L297.806 -33.4668ZM297.806 21.041L297.806 73.7822L350.547 73.7822L350.547 21.041L297.806 21.041ZM297.806 75.5527L297.806 128.294L350.547 128.294L350.547 75.5527L297.806 75.5527ZM297.806 130.059L297.806 182.8L350.547 182.8L350.547 130.059L297.806 130.059ZM297.806 184.566L297.806 237.308L350.547 237.308L350.547 184.566L297.806 184.566ZM297.806 239.074L297.806 291.815L350.547 291.815L350.547 239.074L297.806 239.074ZM297.806 293.584L297.806 346.325L350.547 346.325L350.547 293.584L297.806 293.584ZM297.806 348.092L297.806 400.833L350.547 400.833L350.547 348.092L297.806 348.092ZM297.806 402.6L297.806 455.341L350.547 455.341L350.547 402.6L297.806 402.6ZM297.806 457.107L297.806 509.849L350.547 509.849L350.547 457.107L297.806 457.107ZM297.806 511.613L297.806 564.354L350.547 564.354L350.547 511.613L297.806 511.613ZM297.806 566.119L297.806 618.86L350.547 618.86L350.547 566.119L297.806 566.119ZM297.806 620.4L297.806 673.142L350.547 673.142L350.547 620.4L297.806 620.4ZM352.259 -197L352.259 -144.259L405 -144.259L405 -197L352.259 -197ZM352.259 -142.482L352.259 -89.7412L405 -89.7412L405 -142.482L352.259 -142.482ZM352.259 -87.9746L352.259 -35.2334L405 -35.2334L405 -87.9746L352.259 -87.9746ZM352.259 -33.4668L352.259 19.2744L405 19.2744L405 -33.4668L352.259 -33.4668ZM352.259 21.041L352.259 73.7822L405 73.7822L405 21.041L352.259 21.041ZM352.259 75.5527L352.259 128.294L405 128.294L405 75.5527L352.259 75.5527ZM352.259 130.059L352.259 182.8L405 182.8L405 130.059L352.259 130.059ZM352.259 184.566L352.259 237.308L405 237.308L405 184.566L352.259 184.566ZM352.259 239.074L352.259 291.815L405 291.815L405 239.074L352.259 239.074ZM352.259 293.584L352.259 346.325L405 346.325L405 293.584L352.259 293.584ZM352.259 348.092L352.259 400.833L405 400.833L405 348.092L352.259 348.092ZM352.259 402.6L352.259 455.341L405 455.341L405 402.6L352.259 402.6ZM352.259 457.107L352.259 509.849L405 509.849L405 457.107L352.259 457.107ZM352.259 511.613L352.259 564.354L405 564.354L405 511.613L352.259 511.613ZM352.259 566.119L352.259 618.86L405 618.86L405 566.119L352.259 566.119ZM352.259 620.4L352.259 673.142L405 673.142L405 620.4L352.259 620.4Z" fill="url(#paint0_linear_7622_268202)"/>
<defs>
<linearGradient id="paint0_linear_7622_268202" x1="203" y1="304" x2="363.36" y2="545.593" gradientUnits="userSpaceOnUse">
<stop stop-color="#101010"/>
<stop offset="1" stop-color="#B1B1B1"/>
</linearGradient>
</defs>
</svg>
