<svg width="25" height="30" viewBox="0 0 25 30" fill="none" xmlns="http://www.w3.org/2000/svg">
<path d="M20.2897 15.602C20.2557 11.8956 23.3783 10.0924 23.521 10.0084C21.7526 7.475 19.0116 7.12885 18.0484 7.10125C15.7463 6.8632 13.5132 8.4548 12.3405 8.4548C11.1444 8.4548 9.3385 7.12425 7.39217 7.16335C4.88758 7.2013 2.5445 8.62615 1.25943 10.8387C-1.39263 15.3502 0.585297 21.9799 3.12617 25.6266C4.39719 27.4125 5.88239 29.4066 7.82638 29.3365C9.72823 29.2594 10.4386 28.1451 12.7337 28.1451C15.0078 28.1451 15.6749 29.3365 17.6575 29.2916C19.6986 29.2594 20.9837 27.4976 22.2102 25.6956C23.679 23.6486 24.2689 21.6327 24.2923 21.5292C24.2443 21.5131 20.3283 20.0445 20.2897 15.602Z" fill="white"/>
<path d="M16.5445 4.70235C17.5674 3.4454 18.2673 1.73535 18.073 0C16.5925 0.0644 14.7409 1.00625 13.6747 2.2356C12.7314 3.3189 11.8887 5.0945 12.1064 6.7643C13.7695 6.8862 15.4771 5.93975 16.5445 4.70235Z" fill="white"/>
</svg>
