<svg width="31" height="28" viewBox="0 0 31 28" fill="none" xmlns="http://www.w3.org/2000/svg">
<path d="M13.3859 10.0111C10.2987 7.65846 6.54041 7.45189 5.10865 7.54326C3.81114 7.54326 2.82679 8.59383 2.37937 9.50789C2.02144 10.2391 1.63367 11.5188 1.48454 12.0673C0.446527 15.2117 0.0677147 21.8173 0.00805855 24.7271C-0.170879 29.4803 2.82682 27.8806 4.84017 27.1037C9.00118 25.1841 15.2651 19.6088 17.01 17.9635C18.7549 16.3181 18.6655 15.3127 18.1286 14.49C17.5917 13.6674 16.2046 12.1592 13.3859 10.0111Z" fill="#F7A14C"/>
<ellipse cx="5.8617" cy="2.87931" rx="2.81873" ry="2.87931" fill="#ED6843"/>
<ellipse cx="25.098" cy="2.87931" rx="2.81873" ry="2.87931" fill="#F7A14C"/>
<path d="M17.6131 9.98185C20.7003 7.62916 24.4586 7.4226 25.8904 7.51397C27.1879 7.51397 28.1722 8.56453 28.6197 9.4786C28.9776 10.2098 29.3653 11.4895 29.5145 12.038C30.5525 15.1824 30.9313 21.788 30.991 24.6978C31.1699 29.451 28.1722 27.8513 26.1589 27.0744C21.9978 25.1548 15.7339 19.5795 13.989 17.9342C12.2441 16.2888 12.3336 15.2834 12.8704 14.4607C13.4073 13.6381 14.7944 12.1299 17.6131 9.98185Z" fill="#ED6843"/>
</svg>
