<svg width="28" height="31" viewBox="0 0 28 31" fill="none" xmlns="http://www.w3.org/2000/svg">
<path d="M0.549628 0.464007C0.20148 0.823192 0 1.38241 0 2.10662V27.9387C0 28.6629 0.20148 29.2221 0.549628 29.5813L0.635555 29.6602L15.323 15.1906V14.8489L0.635555 0.379323L0.549628 0.464007Z" fill="url(#paint0_linear_7687_195591)"/>
<path d="M20.2146 20.0156L15.3242 15.19V14.8483L20.2205 10.0227L20.3301 10.0855L26.1287 13.3371C27.7835 14.2599 27.7835 15.7784 26.1287 16.7071L20.3301 19.9529L20.2146 20.0156Z" fill="url(#paint1_linear_7687_195591)"/>
<path d="M20.33 19.9521L15.3241 15.0185L0.550781 29.58C1.10041 30.1495 1.99671 30.2181 3.01597 29.6487L20.33 19.9521Z" fill="url(#paint2_linear_7687_195591)"/>
<path d="M20.33 10.0859L3.01597 0.389347C1.99671 -0.174252 1.10041 -0.105629 0.550781 0.46381L15.3241 15.0195L20.33 10.0859Z" fill="url(#paint3_linear_7687_195591)"/>
<defs>
<linearGradient id="paint0_linear_7687_195591" x1="14.0189" y1="28.2077" x2="-5.58222" y2="8.31958" gradientUnits="userSpaceOnUse">
<stop stop-color="#00A0FF"/>
<stop offset="0.0066" stop-color="#00A1FF"/>
<stop offset="0.2601" stop-color="#00BEFF"/>
<stop offset="0.5122" stop-color="#00D2FF"/>
<stop offset="0.7604" stop-color="#00DFFF"/>
<stop offset="1" stop-color="#00E3FF"/>
</linearGradient>
<linearGradient id="paint1_linear_7687_195591" x1="28.2835" y1="15.0175" x2="-0.394294" y2="15.0175" gradientUnits="userSpaceOnUse">
<stop stop-color="#FFE000"/>
<stop offset="0.4087" stop-color="#FFBD00"/>
<stop offset="0.7754" stop-color="#FFA500"/>
<stop offset="1" stop-color="#FF9C00"/>
</linearGradient>
<linearGradient id="paint2_linear_7687_195591" x1="17.608" y1="12.3364" x2="-8.97273" y2="-14.6335" gradientUnits="userSpaceOnUse">
<stop stop-color="#FF3A44"/>
<stop offset="1" stop-color="#C31162"/>
</linearGradient>
<linearGradient id="paint3_linear_7687_195591" x1="-3.16797" y1="38.1753" x2="8.7015" y2="26.1322" gradientUnits="userSpaceOnUse">
<stop stop-color="#32A071"/>
<stop offset="0.0685" stop-color="#2DA771"/>
<stop offset="0.4762" stop-color="#15CF74"/>
<stop offset="0.8009" stop-color="#06E775"/>
<stop offset="1" stop-color="#00F076"/>
</linearGradient>
</defs>
</svg>
