<svg width="124" height="28" viewBox="0 0 124 28" fill="none" xmlns="http://www.w3.org/2000/svg">
<path d="M13.3859 10.0111C10.2987 7.65846 6.54041 7.45189 5.10865 7.54326C3.81114 7.54326 2.82679 8.59383 2.37937 9.50789C2.02144 10.2391 1.63367 11.5188 1.48454 12.0673C0.446527 15.2117 0.0677147 21.8173 0.00805855 24.7271C-0.170879 29.4803 2.82682 27.8806 4.84017 27.1037C9.00118 25.1841 15.2651 19.6088 17.01 17.9635C18.7549 16.3181 18.6655 15.3127 18.1286 14.49C17.5917 13.6674 16.2046 12.1592 13.3859 10.0111Z" fill="#F7A14C"/>
<ellipse cx="5.8617" cy="2.87931" rx="2.81873" ry="2.87931" fill="#ED6843"/>
<ellipse cx="25.098" cy="2.87931" rx="2.81873" ry="2.87931" fill="#F7A14C"/>
<path d="M17.6131 9.98185C20.7003 7.62916 24.4586 7.4226 25.8904 7.51397C27.1879 7.51397 28.1722 8.56453 28.6197 9.4786C28.9776 10.2098 29.3653 11.4895 29.5145 12.038C30.5525 15.1824 30.9313 21.788 30.991 24.6978C31.1699 29.451 28.1722 27.8513 26.1589 27.0744C21.9978 25.1548 15.7339 19.5795 13.989 17.9342C12.2441 16.2888 12.3336 15.2834 12.8704 14.4607C13.4073 13.6381 14.7944 12.1299 17.6131 9.98185Z" fill="#ED6843"/>
<path d="M41.8397 7.00069L45.3534 17.9356L49.0576 7.00069H53.4393V21H50.5817V10.5058L46.8986 21H43.8082L40.3156 10.5058V21H37.458V7.00069H41.8397Z" fill="white"/>
<path d="M67.6093 7.00069V9.49837H63.6934C62.6773 9.49852 61.9364 9.56845 61.4708 9.70817C61.005 9.84819 60.6169 10.121 60.3065 10.5267C60.0948 10.8068 59.9502 11.0866 59.8726 11.3663C59.795 11.6464 59.7278 12.1218 59.6715 12.7935H67.6093V15.2912H59.6715C59.7843 16.4946 60.1442 17.3306 60.7511 17.7992C61.3577 18.2681 62.3878 18.5025 63.8415 18.5023H67.6093V21H63.6934C62.635 21 61.7037 20.937 60.8992 20.8111C59.6292 20.6013 58.6202 20.0486 57.8723 19.1531C56.7998 17.8657 56.2636 16.1237 56.2637 13.9269C56.2637 11.4922 57.0183 9.59635 58.5285 8.23899C59.0504 7.77734 59.6043 7.45553 60.1901 7.27355C60.7756 7.09172 61.5623 7.00077 62.5503 7.00069H67.6093Z" fill="white"/>
<path d="M75.2415 13.9269L70.6059 7.00069H74.289L77.0618 11.6182L80.0676 7.00069H83.7084L78.9246 13.9269L83.7084 21H80.1735L77.0618 16.1937L74.0138 21H70.4365L75.2415 13.9269Z" fill="white"/>
</svg>
