<svg width="24" height="24" viewBox="0 0 24 24" fill="none" xmlns="http://www.w3.org/2000/svg">
<path d="M12 0.75C12.3298 0.75 12.7338 0.92547 13.1904 1.44043C13.6463 1.95457 14.0908 2.74174 14.4795 3.77832C15.2548 5.84594 15.75 8.75249 15.75 12C15.75 15.2475 15.2548 18.1541 14.4795 20.2217C14.0908 21.2583 13.6463 22.0454 13.1904 22.5596C12.7338 23.0745 12.3298 23.25 12 23.25C11.6702 23.25 11.2662 23.0745 10.8096 22.5596C10.3537 22.0454 9.90923 21.2583 9.52051 20.2217C8.74518 18.1541 8.25 15.2475 8.25 12C8.25 8.75249 8.74518 5.84594 9.52051 3.77832C9.90923 2.74174 10.3537 1.95457 10.8096 1.44043C11.2662 0.92547 11.6702 0.75 12 0.75Z" stroke="#F7A14C" stroke-width="1.5"/>
<line x1="1.5" y1="9.75" x2="22.5" y2="9.75" stroke="#F7A14C" stroke-width="1.5"/>
<line x1="1.5" y1="15.75" x2="22.5" y2="15.75" stroke="#F7A14C" stroke-width="1.5"/>
<circle cx="12" cy="12" r="11.25" stroke="white" stroke-width="1.5"/>
</svg>
