<svg width="24" height="24" viewBox="0 0 24 24" fill="none" xmlns="http://www.w3.org/2000/svg">
<g clip-path="url(#clip0_7965_6945)">
<path d="M22.4695 23.5282C22.7624 23.8211 23.2373 23.8211 23.5302 23.5282C23.823 23.2353 23.823 22.7604 23.5302 22.4675L22.9998 22.9979L22.4695 23.5282ZM16.7148 16.7129L16.1845 17.2432L22.4695 23.5282L22.9998 22.9979L23.5302 22.4675L17.2452 16.1826L16.7148 16.7129Z" fill="#F7A14C"/>
<path d="M4.2959 4.29297C7.68466 0.904209 13.1786 0.904209 16.5674 4.29297C19.9559 7.68175 19.9561 13.1758 16.5674 16.5645C13.1787 19.9531 7.68468 19.9529 4.2959 16.5645C0.907137 13.1757 0.907137 7.68173 4.2959 4.29297Z" stroke="white" stroke-width="1.5"/>
</g>
<defs>
<clipPath id="clip0_7965_6945">
<rect width="24" height="24" fill="white"/>
</clipPath>
</defs>
</svg>
